<?xml version="1.0" encoding="utf-8"?>
<!-- Generator: Adobe Adobe Illustrator 24.2.0, SVG Export Plug-In . SVG Version: 6.00 Build 0)  -->
<svg version="1.1" xmlns="http://www.w3.org/2000/svg" xmlns:xlink="http://www.w3.org/1999/xlink" x="0px" y="0px" width="294px"
	 height="288px" viewBox="0 0 294 288" style="enable-background:new 0 0 294 288;" xml:space="preserve">
<style type="text/css">
	.st0{fill:#FF9A2E;}
	.st1{fill:#FFFFFF;}
	.st2{fill:url(#SVGID_1_);}
	.st3{opacity:0.85;}
	.st4{fill-rule:evenodd;clip-rule:evenodd;fill:#FFFFFF;}
	.st5{fill:url(#SVGID_4_);}
</style>
<g id="Ebene_1">
</g>
<g id="Ebene_2">
</g>
<g id="Ebene_3">
	<g>
		<g>
			<g>
				<g class="st3">
					<path class="st0" d="M222.7,38.16c1.13,0.78,2.23,1.61,3.32,2.45c1.1,0.83,2.2,1.67,3.26,2.55c-0.99-0.98-1.97-1.97-2.9-3.08
						C225.06,38.82,224.04,38.61,222.7,38.16z"/>
					<path class="st0" d="M235.1,48.11c0.38,0.32,0.73,0.68,1.07,0.99c0.37,0.25,0.72,0.5,1.04,0.72
						C236.51,49.25,235.8,48.67,235.1,48.11z"/>
					<path class="st0" d="M245.7,57.8c-0.83-0.96-1.67-1.88-2.52-2.76c-0.86-0.86-1.76-1.66-2.64-2.44
						c0.69,0.78,1.46,1.59,2.33,2.44C243.71,55.92,244.64,56.84,245.7,57.8z"/>
					<path class="st0" d="M237.9,49.36c0.46,0.81,0.58,1.32-0.65,0.49c-0.01-0.01-0.03-0.02-0.05-0.04c1.12,0.9,2.24,1.78,3.33,2.78
						C239.53,51.41,238.62,50.35,237.9,49.36z"/>
					<path class="st0" d="M237.9,49.36c-0.45-0.78-1.28-1.9-1.53-2.33C236.79,47.74,237.3,48.53,237.9,49.36z"/>
					<path class="st0" d="M245.28,46.97c1.24,0.93-0.36,2.03,2.07,3.85c1.32,1.18,2.59,2.32,3.83,3.44c1.21,1.16,2.39,2.3,3.56,3.42
						c2.26,2.34,4.43,4.73,6.33,7.4c2.14,2.19,3.02,7.29,4.97,9.56c1.09,1.38,2.54,3.36,4.12,5.35c1.54,2.03,3.12,4.12,4.37,5.76
						c1.26,1.65,2.25,2.83,2.58,3.01c0.35,0.18,0.1-0.69-1.18-3.06c-3.9-7.12-7.63-12.67-11.45-17.85c-0.95-1.3-1.9-2.58-2.9-3.83
						c-1-1.26-1.94-2.53-3.04-3.79c-2.11-2.56-4.38-5.1-6.89-7.74c-4.25-4.14-8.76-7.78-13.41-11.22c-4.66-3.42-9.5-6.59-14.6-9.62
						c-1.41-0.87-2.74-1.76-4.05-2.65c-1.31-0.88-2.61-1.74-3.91-2.6c3.32,2.38,6.7,4.81,10.29,7.72c2.33,1.96,5.29,3.56,8.63,5.47
						c1.69,0.93,3.4,2.03,5.23,3.19C241.6,44.03,243.48,45.35,245.28,46.97z"/>
					<path class="st0" d="M167.93,11.33c1.45,0.16,4.37,0.6,4.37,0.6c5.8,3.21,12.31,5.01,18.81,7.17c-0.8-0.67-1.61-1.35-2.43-2.04
						c-3.69-1.35-4.29-1-1.22,0.65c-6.94-4.02-14.1-6.62-21.62-8.38C166.16,9.96,165.92,10.5,167.93,11.33z"/>
					<path class="st0" d="M161.39,8.43c1.49,0.25,2.98,0.56,4.44,0.89c-0.02-0.06-0.07-0.13-0.12-0.2c-1.5-0.29-3-0.55-4.47-0.77
						C161.29,8.38,161.34,8.41,161.39,8.43z"/>
					<path class="st0" d="M265.19,81.58c9.98,16.63,16.26,34.24,18.19,51.94c0.51,1.31,1.12,2.23,1.01,4.09
						c-0.25,1.42-0.29,2.83-0.41,4.22c0.03,1.3,0.05,2.59,0.08,3.89c-0.03,1.29-0.05,2.58-0.08,3.87c0.04,0.9,0.02,1.81,0.04,2.74
						c0,0.01,0,0.05,0.01,0.07c0.15,1.47,0.46,1.05,0.79,0.16c0.25-1,0.54-1.92,0.81-2.72c-0.16,0.51-0.5,1.85-0.81,2.72
						c-0.29,1.22-0.55,2.57-0.82,4.15c-0.05,2.38-0.33,4.85-0.77,7.38c0.16-2.86,0.48-5.28,0.77-7.38c0.02-0.75,0.06-1.49,0.06-2.22
						c-0.01-0.73-0.02-1.45-0.03-2.17c-0.04-0.42-0.08-0.83-0.11-1.27c-0.29,5.91-1.05,11.76-2.25,17.51
						c-0.23,1.33-0.46,2.61-0.61,3.65c-0.34,2.11-0.76,4.21-1.28,6.06c-0.58,1.84-1.2,3.46-2.06,4.56
						c-0.35,0.98-0.71,1.97-1.07,2.97c0.12-0.17,0.23-0.35,0.36-0.52c-0.21,0.42-0.39,0.78-0.55,1.06c-0.37,1.04-1,2.68-1.68,4.62
						c-0.33,0.97-0.76,1.99-1.16,3.05c-0.42,1.06-0.8,2.16-1.27,3.22c-0.89,2.14-1.75,4.25-2.55,5.95
						c-0.77,1.72-1.38,3.08-1.69,3.77c0,0-0.55,1.29-1.32,2.81c-0.75,1.53-1.88,3.2-2.74,4.08c-0.49,0.94-1.04,1.94-1.69,2.93
						c-0.69,0.96-1.43,1.93-2.21,2.87c-0.79,0.94-1.57,1.9-2.45,2.73c-0.89,0.83-1.78,1.6-2.65,2.29c0.71-1.18,1.45-2.24,2.23-3.22
						c0.72-1.03,1.45-1.97,2.22-2.85c0.76-0.88,1.55-1.69,2.34-2.46c0.73-0.81,1.48-1.56,2.21-2.29c0.93-1.82,1.62-3.42,1.76-4.74
						c0.76-0.71,2.3-2.16,2.3-2.16c0.63-1.36,1.11-2.8,1.62-4.2c0.52-1.4,0.97-2.81,1.4-4.2c-1.89,3.92-4.06,7.73-6.31,11.51
						c-1.19,1.83-2.39,3.68-3.59,5.53c-1.32,1.77-2.64,3.54-3.97,5.33c-4.52,5.56-9.49,10.63-14.83,15.19
						c-5.35,4.55-11.15,8.48-17.14,11.99c-5.98,3.54-12.33,6.38-18.78,8.87c-6.45,2.51-13.13,4.41-19.91,5.9
						c-1.7,0.34-3.38,0.79-5.1,1.04l-5.15,0.87c-3.46,0.43-6.91,0.94-10.41,1.14c-3.48,0.34-7,0.38-10.51,0.51
						c-3.52-0.04-7.05-0.02-10.59-0.27c-7.08-0.4-14.2-1.22-21.28-2.67c-7.07-1.42-14.15-3.28-21.09-5.78
						c-7.51-2.73-14.69-6.07-21.42-9.98l-2.52-1.47c-0.84-0.49-1.63-1.05-2.44-1.57c-1.61-1.08-3.24-2.07-4.81-3.25
						c-3.19-2.25-6.26-4.62-9.26-7.04c-11.94-9.7-22.04-21.06-28.86-33.84c-3.41-6.36-6.06-12.96-7.97-19.71l-0.69-2.54l-0.35-1.26
						l-0.27-1.29c-0.34-1.72-0.73-3.42-1.04-5.14c-0.25-1.73-0.5-3.46-0.75-5.19c-0.24-1.73-0.35-3.53-0.54-5.29
						c-1.14-14.14-0.45-28.33,2.4-42.11c2.82-13.77,7.54-27.22,14.53-39.55c0.82-1.57,1.79-3.05,2.71-4.57
						c0.47-0.75,0.91-1.53,1.4-2.24l1.46-2.13c1.96-2.83,4.16-5.55,6.47-8.2c4.65-5.28,9.96-10.12,15.72-14.43
						c4.38-3.35,9.77-7.3,15.88-11.01c6.1-3.71,12.93-7.16,19.83-9.61c0.84-0.33,1.87-0.63,2.79-0.95c0.95-0.31,1.9-0.64,2.84-0.92
						c0.94-0.29,1.88-0.58,2.82-0.87c0.93-0.26,1.86-0.53,2.79-0.79c3.7-1,7.31-1.91,10.76-2.53c6.91-1.3,13.21-1.8,18.41-1.77
						c6.96-0.71,11.55-1.22,14.34-2.14c2.81-0.86,3.83-2.08,3.86-3.34c0.08-2.52-3.95-5.29-4.67-5.56
						c-9.08-4.54-18.15-5.59-29.5-4.58c-5.69,0.51-11.94,1.65-19.14,3.31c-3.62,0.83-7.4,1.77-11.61,2.92
						c-2.13,0.63-4.38,1.23-6.63,2.04c-1.13,0.4-2.32,0.74-3.48,1.2c-1.17,0.44-2.36,0.9-3.57,1.36c1.65-0.65,3.02-1.16,4.14-1.55
						c1.14-0.35,2.03-0.58,2.69-0.71c1.31-0.27,1.67-0.14,1.28,0.28c-0.38,0.42-1.53,1.12-3.23,2.04c-0.83,0.5-1.8,1.05-2.89,1.65
						c-0.55,0.3-1.12,0.61-1.72,0.93c-0.59,0.34-1.2,0.7-1.83,1.07c-5.12,2.9-11.52,6.84-17.84,11.23
						c-6.34,4.36-12.62,9.15-18.01,13.12c-0.97,0.73-1.94,1.48-2.92,2.25c-0.49,0.39-0.98,0.79-1.47,1.18
						c-0.47,0.42-0.95,0.84-1.42,1.27c-0.95,0.86-1.91,1.74-2.86,2.65c-0.92,0.94-1.84,1.9-2.76,2.89
						c-0.94,0.97-1.81,2.02-2.69,3.09c-0.87,1.08-1.79,2.12-2.6,3.29c-0.83,1.16-1.66,2.33-2.5,3.5c-0.75,1.19-1.5,2.38-2.27,3.59
						c-6.03,9.68-10.72,20.9-14.12,32.71c-1.63,5.93-3.05,11.99-3.99,18.15c-0.56,3.06-0.86,6.17-1.26,9.27
						c-0.16,1.55-0.27,3.11-0.41,4.66c-0.14,1.55-0.27,3.1-0.32,4.66c-0.08,1.55-0.15,3.11-0.23,4.66c-0.02,1.55-0.04,3.1-0.06,4.65
						l-0.03,2.32l0.05,2.31c0.03,1.54,0.06,3.08,0.09,4.61c0.08,1.53,0.16,3.06,0.25,4.58l0.12,2.28l0.2,2.27
						c0.12,1.51,0.25,3.02,0.37,4.52c0.19,1.53,0.38,3.06,0.57,4.58c0.29,3.06,1.03,6.11,1.67,9.24c0.34,1.56,0.85,3.11,1.28,4.68
						c0.46,1.57,0.9,3.17,1.51,4.73c0.58,1.57,1.17,3.16,1.76,4.77c0.69,1.57,1.39,3.16,2.1,4.77c0.68,1.63,1.53,3.19,2.35,4.79
						c0.83,1.6,1.64,3.24,2.61,4.82c4.57,8.44,10.26,16.12,16.57,22.95c6.32,6.84,13.25,12.86,20.46,18.24l2.71,2.01l2.76,1.91
						l2.76,1.89c0.93,0.63,1.94,1.23,2.91,1.84c1.96,1.21,3.9,2.47,5.93,3.53c2.02,1.08,4,2.27,6.08,3.22
						c8.2,4.07,16.73,7.38,25.48,9.86c17.5,4.98,35.76,7.07,54.24,6.39c18.47-0.69,37.25-4.24,55.54-11.38
						c9.66-3.87,18.19-8.94,25.63-14.68c7.46-5.74,13.84-12.13,19.46-18.81c4.33-4.68,8.41-9.86,12.18-14.93
						c0.88-1.31,1.75-2.61,2.6-3.88c0.86-1.28,1.7-2.53,2.41-3.77c0.73-1.24,1.46-2.44,2.12-3.63c0.63-1.21,1.25-2.38,1.84-3.51
						c7.17-14.35,10.69-28.14,11.85-41.36c-0.97,7.35-2.3,13.65-4.1,20.02c-1.82,6.36-4.13,12.82-7.63,20.26
						c-2.45,4.9-2.11,2.91-0.86-1.09c1.18-4.05,3.03-10.19,3.96-13.65c0.69-2.97,4.21-6.91,4.64-10.04
						c1.82-6.5,2.24-12.77,2.56-19.95c-0.08-3.1,1.75-2.57,1.69-4.14c0.07-1.24,0.05-2.44-0.01-3.61c-0.06-1.17-0.11-2.3-0.24-3.4
						c-0.28-2.2-0.55-4.26-0.95-6.19c-0.36-1.92-0.7-3.73-1.03-5.45c-0.15-0.85-0.26-1.69-0.35-2.5c-0.11-0.81-0.18-1.6-0.21-2.38
						c-0.09-2.36-0.35-4.58-0.53-6.76c-0.27-2.16-0.49-4.26-0.83-6.31c-0.26-1.29-0.5-2.58-0.8-3.88c-0.33-1.29-0.69-2.59-1.1-3.91
						c-0.64-1.61-1.36-3.25-2.05-4.9c-0.13,1.53-0.13,1.53,0,0c-2.57-5.87-5.69-11.96-9.22-17.89c-3.53-5.93-7.46-11.68-11.51-17
						c-0.01,0.07-0.03,0.17-0.05,0.24c4.46,6.38,8.15,13.13,10.56,20.9c-1.13-3.32-0.47-3.18,1.37,0.37
						c0.17,1.05,0.26,2.14,0.38,3.18c-3.29-6.12-6.97-11.85-9.18-18.15c0,0-0.47-0.58-1.07-1.3c-0.59-0.72-1.34-1.55-1.83-2.1
						c-0.96-1.98-0.41-2.23-0.23-2.9c-0.88-1.24-1.8-2.47-2.72-3.7c0.53,1.61,1.99,4.67,3.19,7.38c0.63,1.34,1.17,2.61,1.57,3.53
						C264.94,81,265.19,81.58,265.19,81.58z"/>
					<path class="st0" d="M283.94,156.89c0.03-1.04,0.12-2.32,0.11-3.69c-0.37,4.94-1.01,9.86-2.02,14.72
						C283.4,165.5,283.87,161.19,283.94,156.89z"/>
				</g>
			</g>
		</g>
	</g>
</g>
<g id="Ebene_4">
</g>
</svg>
